<?xml version="1.0" encoding="utf-8"?>
<!-- Generator: Adobe Illustrator 24.0.0, SVG Export Plug-In . SVG Version: 6.00 Build 0)  -->
<svg version="1.1" id="Layer_1" xmlns="http://www.w3.org/2000/svg" xmlns:xlink="http://www.w3.org/1999/xlink" x="0px" y="0px"
	 viewBox="0 0 212 36" style="enable-background:new 0 0 212 36;" xml:space="preserve">
<style type="text/css">
	.st0{fill:#FFFFFF;stroke:#FFFFFF;stroke-width:0.75;stroke-miterlimit:10;}
	.st1{fill:#ED0000;}
</style>
<g>
	<path class="st0" d="M8.3,22.5c0,0.9-0.2,1.7-0.6,2.3c-0.4,0.6-1,1.3-1.8,1.9c-0.7,0.6-1.2,1.1-1.5,1.6S4,29.3,4,30
		s0.2,1.3,0.7,1.7S6,32.3,7,32.3c0.6,0,1.2-0.1,1.9-0.2c0.7-0.1,1.3-0.3,1.8-0.6c0,1.1-0.1,2.2-0.3,3.2c-1.2,0.5-2.6,0.8-4.1,0.8
		c-1.4,0-2.5-0.2-3.5-0.7s-1.7-1-2.1-1.8C0.2,32.2,0,31.3,0,30.2c0-0.8,0.1-1.5,0.4-2.1s0.6-1.2,1.1-1.6s1.1-1,1.9-1.5
		c0.6-0.4,1-0.7,1.3-1s0.5-0.6,0.6-0.9s0.2-0.7,0.2-1.1v-0.4h2.6C8.3,22.1,8.3,22.3,8.3,22.5z M7.9,15.1c0.3,0.2,0.6,0.4,0.8,0.8
		s0.3,0.6,0.3,1S8.9,17.7,8.7,18s-0.4,0.6-0.8,0.8c-0.3,0.2-0.7,0.3-1.1,0.3S6,19,5.7,18.8S5.2,18.3,5,18s-0.3-0.7-0.3-1.1
		s0.1-0.7,0.3-1.1s0.4-0.6,0.8-0.8c0.3-0.2,0.7-0.3,1.1-0.3C7.3,14.8,7.6,14.9,7.9,15.1z"/>
	<path class="st0" d="M19.2,26.4h8.3c0,0.5,0,1-0.1,1.6s-0.1,1.2-0.2,1.6H15.4V9.5h12.1c0,0.5-0.1,1.1-0.1,1.7s-0.1,1.1-0.2,1.5h-8
		v5.1h7.5c0,0.5,0,1-0.1,1.6s-0.1,1.1-0.2,1.6h-7.1L19.2,26.4L19.2,26.4z"/>
	<path class="st0" d="M33.3,29.8c-1-0.2-1.8-0.5-2.4-0.9c0-0.7,0.1-1.2,0.1-1.7c0.1-0.5,0.2-1,0.3-1.5c0.7,0.4,1.5,0.7,2.3,0.9
		c0.9,0.2,1.7,0.3,2.6,0.3c1.2,0,2.1-0.2,2.7-0.7c0.6-0.4,1-1.1,1-1.9c0-0.6-0.1-1.1-0.4-1.5c-0.3-0.4-0.7-0.7-1.1-1s-1-0.5-1.7-0.8
		L35,20.3c-2.8-1.1-4.3-3.1-4.3-5.8c0-1.7,0.6-3.1,1.8-4.1c1.2-1,3-1.5,5.4-1.5c2,0,3.7,0.3,5.2,0.9c0,0.6-0.1,1.1-0.2,1.5
		c-0.1,0.4-0.2,1-0.3,1.5c-0.8-0.3-1.5-0.5-2.3-0.6S38.8,12,38.1,12c-1.2,0-2.1,0.2-2.6,0.7s-0.8,1-0.8,1.8s0.3,1.4,0.8,1.9
		c0.5,0.5,1.2,0.9,2,1.2l1.7,0.6c3.2,1.2,4.7,3.1,4.7,5.9c0,1.2-0.3,2.2-0.9,3.1s-1.4,1.6-2.5,2.1s-2.5,0.8-4.1,0.8
		C35.3,30.1,34.2,30,33.3,29.8z"/>
	<path class="st0" d="M60.6,11.2c-0.1,0.6-0.1,1.2-0.2,1.6h-5.2v16.8h-3.8V12.8h-5.5c0-0.5,0.1-1.1,0.1-1.7c0.1-0.6,0.1-1.1,0.2-1.6
		h14.4C60.7,10,60.7,10.5,60.6,11.2z"/>
	<path class="st0" d="M72.7,25.6h-7.5L64,29.5h-3.7l6.3-19.8c0.5-0.1,1.2-0.2,2.1-0.3s1.8-0.1,2.7-0.1l6.4,20.2h-4L72.7,25.6z
		 M71.8,22.5l-2.7-9.7l-2.9,9.7H71.8z M68.5,4c0.3-0.1,0.6-0.1,1-0.1s0.9,0,1.3,0c0.5,0,1,0,1.4,0.1s0.8,0.1,1.1,0.2
		c-0.7,1-1.5,1.8-2.5,2.4s-2.2,0.9-3.3,0.9h-0.6L68.5,4z"/>
	<path class="st0" d="M94.6,9.4c0.7-0.1,1.3-0.1,2-0.1v20.3h-3.4L86.1,18c-0.6-1-1-1.8-1.3-2.3c0,1.4,0.1,3.6,0.1,6.6v7.3h-3.6V9.8
		c0.5-0.2,1.1-0.3,1.8-0.4c0.6-0.1,1.2-0.1,1.8-0.1L91.5,20c0.5,0.8,1,1.8,1.6,3c-0.1-2.3-0.2-4.8-0.2-7.4V9.8
		C93.4,9.6,94,9.5,94.6,9.4z"/>
	<path class="st0" d="M109.4,9.8c0.5-0.1,1.1-0.3,1.8-0.3c0.7-0.1,1.4-0.1,2-0.1v17.1h7.2c0,0.5,0,1-0.1,1.6s-0.1,1.2-0.2,1.6h-10.6
		V9.8H109.4z"/>
	<path class="st0" d="M124.1,9.8c0.5-0.1,1.1-0.3,1.8-0.3c0.7-0.1,1.4-0.1,2-0.1v20.3h-3.8V9.8z"/>
	<path class="st0" d="M134.8,29.8c-1-0.2-1.8-0.5-2.4-0.9c0-0.7,0.1-1.2,0.1-1.7c0.1-0.5,0.2-1,0.3-1.5c0.7,0.4,1.5,0.7,2.3,0.9
		c0.9,0.2,1.7,0.3,2.6,0.3c1.2,0,2.1-0.2,2.7-0.7c0.6-0.4,1-1.1,1-1.9c0-0.6-0.1-1.1-0.4-1.5c-0.3-0.4-0.7-0.7-1.1-1
		c-0.4-0.3-1-0.5-1.7-0.8l-1.7-0.7c-2.8-1.1-4.3-3.1-4.3-5.8c0-1.7,0.6-3.1,1.8-4.1s3-1.5,5.4-1.5c2,0,3.7,0.3,5.2,0.9
		c0,0.6-0.1,1.1-0.2,1.5s-0.2,1-0.3,1.5c-0.8-0.3-1.5-0.5-2.3-0.6s-1.5-0.2-2.2-0.2c-1.2,0-2.1,0.2-2.6,0.7c-0.6,0.4-0.8,1-0.8,1.8
		s0.3,1.4,0.8,1.9c0.5,0.5,1.2,0.9,2,1.2l1.7,0.6c3.2,1.2,4.7,3.1,4.7,5.9c0,1.2-0.3,2.2-0.9,3.1c-0.6,0.9-1.4,1.6-2.5,2.1
		s-2.5,0.8-4.1,0.8C136.7,30.1,135.7,30,134.8,29.8z"/>
	<path class="st0" d="M162.1,11.2c-0.1,0.6-0.1,1.2-0.2,1.6h-5.2v16.8h-3.8V12.8h-5.5c0-0.5,0.1-1.1,0.1-1.7
		c0.1-0.6,0.1-1.1,0.2-1.6h14.4C162.2,10,162.1,10.5,162.1,11.2z"/>
	<path class="st0" d="M187.9,29.8c-1-0.2-1.8-0.5-2.4-0.9c0-0.7,0.1-1.2,0.1-1.7c0.1-0.5,0.2-1,0.3-1.5c0.7,0.4,1.5,0.7,2.3,0.9
		c0.9,0.2,1.7,0.3,2.6,0.3c1.2,0,2.1-0.2,2.7-0.7c0.6-0.4,1-1.1,1-1.9c0-0.6-0.1-1.1-0.4-1.5c-0.3-0.4-0.7-0.7-1.1-1
		c-0.4-0.3-1-0.5-1.7-0.8l-1.7-0.7c-2.8-1.1-4.3-3.1-4.3-5.8c0-1.7,0.6-3.1,1.8-4.1s3-1.5,5.4-1.5c2,0,3.7,0.3,5.2,0.9
		c0,0.6-0.1,1.1-0.2,1.5s-0.2,1-0.3,1.5c-0.8-0.3-1.5-0.5-2.3-0.6s-1.5-0.2-2.2-0.2c-1.2,0-2.1,0.2-2.6,0.7c-0.6,0.4-0.8,1-0.8,1.8
		s0.3,1.4,0.8,1.9c0.5,0.5,1.2,0.9,2,1.2l1.7,0.6c3.2,1.2,4.7,3.1,4.7,5.9c0,1.2-0.3,2.2-0.9,3.1c-0.6,0.9-1.4,1.6-2.5,2.1
		s-2.5,0.8-4.1,0.8C189.8,30.1,188.8,30,187.9,29.8z"/>
	<path class="st0" d="M204.3,22.1c0-0.9,0.2-1.7,0.6-2.4c0.4-0.6,0.9-1.3,1.7-1.9c0.7-0.6,1.2-1.1,1.5-1.6s0.5-1,0.5-1.7
		s-0.2-1.3-0.7-1.7s-1.3-0.6-2.4-0.6c-0.6,0-1.3,0.1-1.9,0.2s-1.3,0.3-1.8,0.6c0-1.1,0.1-2.2,0.3-3.2c1.2-0.5,2.6-0.8,4.1-0.8
		c1.4,0,2.5,0.2,3.5,0.7c0.9,0.4,1.7,1,2.1,1.8c0.5,0.8,0.7,1.7,0.7,2.8c0,0.8-0.1,1.5-0.4,2.1c-0.3,0.6-0.6,1.2-1.1,1.6
		c-0.5,0.5-1.1,1-1.9,1.5c-0.5,0.4-1,0.7-1.2,0.9c-0.3,0.3-0.5,0.5-0.6,0.9c-0.1,0.3-0.2,0.7-0.2,1.1V23h-2.6
		C204.3,22.6,204.3,22.3,204.3,22.1z M204.7,29.6c-0.3-0.2-0.6-0.4-0.8-0.8c-0.2-0.3-0.3-0.7-0.3-1.1s0.1-0.7,0.3-1.1
		c0.2-0.3,0.4-0.6,0.8-0.8c0.3-0.2,0.7-0.3,1.1-0.3c0.4,0,0.8,0.1,1.1,0.3s0.6,0.5,0.8,0.8s0.3,0.7,0.3,1.1s-0.1,0.7-0.3,1.1
		c-0.2,0.3-0.4,0.6-0.8,0.8c-0.3,0.2-0.7,0.3-1.1,0.3S205,29.8,204.7,29.6z"/>
</g>
<path class="st1" d="M179.4,20.6l-8.5,4.9c-0.8,0.5-1.8-0.1-1.8-1.1v-9.9c0-0.9,1-1.5,1.8-1l8.5,4.9C180.2,19,180.2,20.2,179.4,20.6
	 M180.1,12.2c-2-2.1-4.5-3.1-7.4-3.1s-5.3,1-7.4,3.1c-2,2.1-3.1,4.5-3.1,7.4s1,5.3,3.1,7.4c2,2,4.5,3.1,7.4,3.1s5.3-1,7.4-3.1
	c2-2,3.1-4.5,3.1-7.4C183.2,16.7,182.2,14.2,180.1,12.2"/>
</svg>
