<?xml version="1.0" encoding="utf-8"?>
<!-- Generator: Adobe Illustrator 24.0.0, SVG Export Plug-In . SVG Version: 6.00 Build 0)  -->
<svg version="1.1" xmlns="http://www.w3.org/2000/svg" xmlns:xlink="http://www.w3.org/1999/xlink" x="0px" y="0px"
	 viewBox="0 0 320 23" style="enable-background:new 0 0 320 23;" xml:space="preserve">
<style type="text/css">
	.st0{fill:#FF0000;}
	.st1{fill:#9B3D72;}
	.st2{font-family:'ArialMT';}
	.st3{font-size:1.343px;}
	.st4{fill:#FFFFFF;}
	.st5{fill:#81C787;}
	.st6{fill:#00B9BC;}
	.st7{fill:#FFC849;}
</style>
<g id="Layer_1">
	<g>
		<polygon points="243,23 0,23 0,0 243,0 251,11.7 		"/>
	</g>
	<g>
		<polygon class="st0" points="320,23 245,23 253,11.7 245,0 320,0 		"/>
	</g>
	<text transform="matrix(0.9572 0 0 1 196.9737 9.791)" class="st1 st2 st3">     </text>
	<path class="st4" d="M201.5,10.8c0.1-0.5-0.2-0.8-0.7-0.8c-0.4,0-0.8,0.2-1.2,0.3c-0.1,0-0.1,0-0.2,0.1c-0.2-0.4-0.4-0.8-0.5-1.3
		c0.4-0.2,0.8-0.3,1.2-0.4c0.6-0.1,1.2-0.1,1.8,0c0.8,0.2,1.4,0.9,1.4,1.7c0,1.2,0,2.4,0,3.6c0,0,0,0,0,0.1c-0.4,0-0.7,0-1.1,0
		l-0.1-0.1c-0.1-0.2-0.2-0.4-0.3-0.6c-0.1,0.1-0.3,0.3-0.4,0.4c-0.3,0.3-0.6,0.4-1,0.4c-0.3,0-0.5,0-0.8,0c-0.7-0.1-1.2-0.7-1.2-1.5
		c0-0.2,0-0.4,0-0.6c0.1-0.5,0.3-0.8,0.8-1.1c0.5-0.2,1-0.3,1.5-0.3C201,10.8,201.3,10.8,201.5,10.8z M201.6,11.8
		c-0.3,0-0.5,0-0.7,0.1c-0.1,0-0.3,0.1-0.4,0.2c-0.3,0.2-0.2,0.8,0.1,0.9c0.4,0.2,1-0.2,1-0.6C201.6,12.2,201.6,12,201.6,11.8z"/>
	<path class="st5" d="M195.1,11.5c0.9,0.9,1.7,1.8,2.6,2.7c-0.2,0.2-0.4,0.5-0.6,0.7c-1.1-1.1-2.2-2.3-3.3-3.4
		c1.1-1.1,2.2-2.2,3.2-3.3c0.2,0.2,0.4,0.4,0.6,0.6C196.8,9.7,195.9,10.6,195.1,11.5z"/>
	<path class="st1" d="M201,4.1c1.1,1.1,2.1,2.3,3.2,3.4c-0.2,0.2-0.4,0.4-0.6,0.6c-0.8-0.9-1.7-1.8-2.6-2.7
		c-0.9,0.9-1.7,1.8-2.6,2.7c-0.2-0.2-0.5-0.4-0.7-0.6C198.8,6.4,199.9,5.2,201,4.1z"/>
	<path class="st6" d="M206.8,11.5c-0.9-0.9-1.8-1.8-2.6-2.7c0.2-0.2,0.4-0.5,0.6-0.7c1.1,1.1,2.2,2.2,3.3,3.3
		c-1.1,1.1-2.2,2.3-3.3,3.4c-0.2-0.2-0.4-0.4-0.6-0.7C205,13.4,205.9,12.4,206.8,11.5z"/>
	<path class="st7" d="M200.9,19c-1.1-1.1-2.2-2.3-3.3-3.4c0.2-0.2,0.4-0.4,0.6-0.6c0.8,0.9,1.7,1.8,2.6,2.7c0.9-0.9,1.8-1.8,2.6-2.7
		c0.2,0.2,0.4,0.5,0.6,0.7C203.1,16.7,202,17.9,200.9,19z"/>
	<g>
		<path class="st4" d="M265.2,10.2c0-0.4-0.1-0.8-0.3-1.1l-1.7-3c-0.1-0.2-0.2-0.5-0.3-0.7l-0.1,0.1c-0.4,0.7-0.4,1.7,0,2.4l1.3,2.4
			c0.4,0.7,0.4,1.7,0,2.4l-0.1,0.1c0-0.3-0.1-0.5-0.3-0.7l-1.2-2.2l-0.8-1.4c-0.1-0.2-0.2-0.5-0.3-0.7l-0.1,0.1
			c-0.4,0.7-0.4,1.7,0,2.4l0,0l1.3,2.4c0.4,0.7,0.4,1.7,0,2.4l-0.1,0.1c0-0.3-0.1-0.5-0.3-0.7l-1.7-3c-0.2-0.4-0.3-0.9-0.3-1.3
			c-1.8,0.5-3,1.5-3,2.7c0,1.7,2.4,3,5.3,3s5.3-1.4,5.3-3C268.3,11.7,267,10.7,265.2,10.2 M270.3,15.3c0-0.4,0.1-0.7,0.2-1.1
			c0.6,0.3,1.3,0.4,1.8,0.4c0.9,0,1.5-0.3,1.5-0.9c0-0.6-0.4-0.9-1.3-1.3l-0.5-0.2c-0.9-0.4-1.6-1-1.6-2.1c0-1.2,0.8-2,2.4-2
			c0.7,0,1.3,0.1,1.8,0.3c0,0.4-0.1,0.7-0.2,1c-0.5-0.2-1.2-0.3-1.6-0.3c-0.9,0-1.3,0.4-1.3,0.9s0.4,0.9,1.1,1.2l0.5,0.2
			c1.3,0.6,1.8,1.2,1.8,2.2c0,1.2-0.9,2-2.6,2C271.5,15.7,270.8,15.6,270.3,15.3 M280.3,10.3v5.2h-1l-0.1-0.6
			c-0.3,0.5-0.7,0.8-1.4,0.8c-1.3,0-2.2-1-2.2-2.8s0.9-2.9,2.8-2.9C279.1,10,279.7,10.1,280.3,10.3 M279.2,14.4v-3.3
			c-0.2,0-0.5-0.1-0.8-0.1c-1.1,0-1.7,0.7-1.7,1.9c0,1.1,0.4,1.8,1.4,1.8C278.5,14.7,278.9,14.6,279.2,14.4 M285.9,12.1v3.5h-1.1
			v-3.3c0-0.8-0.3-1.2-1.4-1.2c-0.3,0-0.6,0-0.9,0.1v4.5h-1.1v-5.2c0.7-0.2,1.5-0.3,2-0.3C285.3,10,285.9,10.8,285.9,12.1 M289,14.7
			c0.3,0,0.6-0.1,0.9-0.2c0,0.3-0.1,0.7-0.1,1c-0.3,0.1-0.6,0.2-0.9,0.2c-1.1,0-1.8-0.5-1.8-1.8V8.4c0.3-0.1,0.8-0.2,1.1-0.2v2h1.7
			c0,0.4-0.1,0.7-0.1,1h-1.6v2.6C288.1,14.4,288.4,14.7,289,14.7 M294.9,10.3v5.2h-1l-0.1-0.6c-0.3,0.5-0.7,0.8-1.4,0.8
			c-1.3,0-2.2-1-2.2-2.8s0.9-2.9,2.8-2.9C293.7,10,294.3,10.1,294.9,10.3 M293.8,14.4v-3.3c-0.2,0-0.5-0.1-0.8-0.1
			c-1.1,0-1.7,0.7-1.7,1.9c0,1.1,0.4,1.8,1.4,1.8C293.1,14.7,293.5,14.6,293.8,14.4 M300.5,12.1v3.5h-1.1v-3.3
			c0-0.8-0.3-1.2-1.4-1.2c-0.3,0-0.6,0-0.9,0.1v4.5H296v-5.2c0.7-0.2,1.5-0.3,2-0.3C299.9,10,300.5,10.8,300.5,12.1 M306.1,8.2v7.3
			h-1l-0.1-0.7c-0.3,0.5-0.7,0.8-1.4,0.8c-1.3,0-2.2-1-2.2-2.8s0.9-2.9,2.8-2.9c0.3,0,0.6,0,0.8,0.1V8.4
			C305.3,8.3,305.7,8.2,306.1,8.2 M305,14.4v-3.2c-0.3-0.1-0.6-0.1-0.9-0.1c-1.1,0-1.6,0.7-1.6,1.9c0,1.1,0.4,1.8,1.4,1.8
			C304.3,14.7,304.7,14.6,305,14.4 M311.6,13.3h-3.5c0.1,0.9,0.7,1.4,1.6,1.4c0.6,0,1.2-0.1,1.8-0.4c0,0.3-0.1,0.7-0.2,1
			c-0.5,0.2-1,0.3-1.6,0.3c-1.8,0-2.7-1.1-2.7-2.9c0-1.6,0.7-2.8,2.4-2.8c1.6,0,2.3,1.1,2.3,2.4C311.7,12.8,311.7,13,311.6,13.3
			 M308.1,12.4h2.5c0-0.9-0.4-1.4-1.2-1.4C308.6,11,308.2,11.5,308.1,12.4 M315.5,10.1c0,0.3,0,0.8-0.1,1c-0.3,0-0.5,0-0.8,0
			s-0.5,0-0.8,0.1v4.5h-1.1v-5.2c0.5-0.2,1.3-0.3,1.9-0.3C314.9,10,315.2,10.1,315.5,10.1"/>
	</g>
	<g>
		<path class="st6" d="M211.2,11.3c0-1.2,0.7-2,1.8-2c0.4,0,0.7,0.1,0.9,0.2c0,0.2,0,0.4-0.1,0.6c-0.2-0.1-0.4-0.1-0.7-0.1
			c-0.7,0-1.1,0.5-1.1,1.4c0,0.9,0.5,1.4,1.2,1.4c0.3,0,0.5-0.1,0.7-0.2c0,0.2-0.1,0.4-0.1,0.7c-0.2,0.1-0.5,0.1-0.7,0.1
			C211.8,13.3,211.2,12.5,211.2,11.3z"/>
		<path class="st6" d="M214,11.9c0-0.9,0.5-1.5,1.3-1.5c0.8,0,1.3,0.5,1.3,1.5c0,0.9-0.5,1.5-1.3,1.5C214.5,13.3,214,12.8,214,11.9z
			 M215.9,11.9c0-0.6-0.2-0.9-0.6-0.9c-0.4,0-0.6,0.3-0.6,0.9c0,0.6,0.2,0.9,0.6,0.9C215.8,12.7,215.9,12.5,215.9,11.9z"/>
		<path class="st6" d="M221.1,11.4v1.8h-0.7v-1.8c0-0.3-0.1-0.5-0.5-0.5c-0.2,0-0.3,0-0.5,0.1c0,0.1,0,0.2,0,0.3v1.8h-0.7v-1.8
			c0-0.4-0.1-0.5-0.5-0.5c-0.1,0-0.3,0-0.4,0v2.2h-0.7v-2.7c0.4-0.1,0.8-0.2,1.1-0.2c0.4,0,0.7,0.1,0.9,0.2c0.2-0.2,0.5-0.2,0.9-0.2
			C220.8,10.4,221.1,10.8,221.1,11.4z"/>
		<path class="st6" d="M224.2,11.8c0,0.9-0.5,1.5-1.4,1.5c-0.1,0-0.2,0-0.3,0v1.1h-0.7v-3.8c0.3-0.1,0.7-0.2,1.1-0.2
			C223.7,10.4,224.2,10.9,224.2,11.8z M223.5,11.8c0-0.6-0.2-0.9-0.7-0.9c-0.1,0-0.2,0-0.4,0.1v1.7c0.1,0,0.2,0,0.3,0
			C223.3,12.7,223.5,12.4,223.5,11.8z"/>
		<path class="st6" d="M224.6,9.4c0.2-0.1,0.5-0.1,0.7-0.1v4h-0.7V9.4z"/>
		<path class="st6" d="M225.9,9.6c0-0.2,0.2-0.4,0.4-0.4c0.2,0,0.4,0.2,0.4,0.4c0,0.2-0.2,0.4-0.4,0.4C226.1,10,225.9,9.8,225.9,9.6
			z M225.9,10.5h0.7v2.8h-0.7V10.5z"/>
		<path class="st6" d="M229.6,10.5v2.7h-0.7l0-0.4c-0.1,0.3-0.4,0.5-0.7,0.5c-0.6,0-1.1-0.4-1.1-1.4c0-0.9,0.4-1.5,1.4-1.5
			C228.9,10.4,229.3,10.4,229.6,10.5z M228.9,12.6V11c-0.1,0-0.2,0-0.4,0c-0.5,0-0.7,0.4-0.7,0.9c0,0.6,0.2,0.9,0.6,0.9
			C228.6,12.7,228.8,12.7,228.9,12.6z"/>
		<path class="st6" d="M232.5,11.4v1.8h-0.7v-1.8c0-0.4-0.1-0.5-0.5-0.5c-0.1,0-0.3,0-0.4,0v2.2h-0.7v-2.7c0.4-0.1,0.8-0.2,1.1-0.2
			C232.2,10.4,232.5,10.8,232.5,11.4z"/>
		<path class="st6" d="M232.9,11.9c0-0.9,0.4-1.5,1.4-1.5c0.2,0,0.5,0,0.6,0.1c0,0.2,0,0.4-0.1,0.6c-0.2-0.1-0.3-0.1-0.5-0.1
			c-0.5,0-0.7,0.3-0.7,0.9c0,0.6,0.3,0.9,0.7,0.9c0.2,0,0.4-0.1,0.5-0.1c0,0.2,0,0.4-0.1,0.6c-0.1,0.1-0.4,0.1-0.6,0.1
			C233.5,13.3,232.9,12.8,232.9,11.9z"/>
		<path class="st6" d="M237.5,12.1h-1.7c0.1,0.5,0.3,0.7,0.8,0.7c0.3,0,0.6-0.1,0.9-0.2c0,0.2-0.1,0.4-0.1,0.6
			c-0.2,0.1-0.5,0.2-0.9,0.2c-1,0-1.4-0.6-1.4-1.5c0-0.8,0.4-1.4,1.3-1.4c0.8,0,1.2,0.5,1.2,1.2C237.5,11.8,237.5,12,237.5,12.1z
			 M235.8,11.6h1.1c0-0.4-0.2-0.6-0.5-0.6C236,10.9,235.8,11.2,235.8,11.6z"/>
	</g>
</g>
<g id="Layer_2">
</g>
<g id="Layer_3">
</g>
</svg>
