<?xml version="1.0" encoding="utf-8"?>
<!-- Generator: Adobe Illustrator 24.0.0, SVG Export Plug-In . SVG Version: 6.00 Build 0)  -->
<svg version="1.1" id="Capa_1" xmlns="http://www.w3.org/2000/svg" xmlns:xlink="http://www.w3.org/1999/xlink" x="0px" y="0px"
	 viewBox="0 0 178.2 27" style="enable-background:new 0 0 178.2 27;" xml:space="preserve">
<g>
	<g>
		<g>
			<path d="M7.4,0.2c-0.3,0-0.5,0.2-0.5,0.5v3.2c0,0.3,0.2,0.5,0.5,0.5S8,4.3,8,4V0.7C8,0.4,7.7,0.2,7.4,0.2z"/>
		</g>
	</g>
	<g>
		<g>
			<path d="M14.4,7.1h-3.2c-0.3,0-0.5,0.2-0.5,0.5s0.1,0.6,0.4,0.6h3.2c0.3,0,0.5-0.2,0.5-0.5S14.6,7.1,14.4,7.1z"/>
		</g>
	</g>
	<g>
		<g>
			<path d="M3.8,7.1H0.5C0.2,7.1,0,7.3,0,7.6s0.2,0.6,0.5,0.6h3.2C4,8.2,4.2,8,4.2,7.7C4.3,7.3,4.1,7.1,3.8,7.1z"/>
		</g>
	</g>
	<g>
		<g>
			<path d="M4.8,4.3L3.3,2.8c-0.2-0.2-0.5-0.2-0.7,0s-0.2,0.5,0,0.7L4.1,5c0.1,0.1,0.2,0.2,0.4,0.2S4.8,5.1,4.9,5
				C5,4.8,5,4.5,4.8,4.3z"/>
		</g>
	</g>
	<g>
		<g>
			<path d="M12.3,2.8c-0.2-0.2-0.5-0.2-0.7,0L10,4.3C9.8,4.5,9.8,4.8,10,5c0.1,0.1,0.3,0.2,0.4,0.2s0.3-0.1,0.4-0.2l1.5-1.5
				C12.5,3.3,12.5,3,12.3,2.8z"/>
		</g>
	</g>
	<g>
		<g>
			<path d="M16,12.2c-0.4,0-0.7,0.1-1,0.3c-0.2-0.8-1-1.4-1.9-1.4c-0.6,0-1.1,0.2-1.4,0.6c-0.4-0.4-0.9-0.6-1.4-0.6
				c-0.3,0-0.6,0.1-0.9,0.2V7.6c0-1.1-0.9-1.9-1.9-1.9s-2,0.9-2,1.9v2.8c0,0.3,0.2,0.5,0.5,0.5s0.5-0.2,0.5-0.5V7.6
				c0-0.5,0.4-0.9,0.9-0.9s0.9,0.4,0.9,0.9v8.8c0,0.3,0.2,0.5,0.5,0.5s0.5-0.2,0.5-0.5V13c0-0.5,0.4-0.9,0.9-0.9s0.9,0.4,0.9,0.9
				v0.5v2.9c0,0.3,0.2,0.5,0.5,0.5s0.5-0.2,0.5-0.5v-2.9V13c0-0.5,0.4-0.9,0.9-0.9s0.9,0.4,0.9,0.9v1.1V15v1.4
				c0,0.3,0.2,0.5,0.5,0.5s0.5-0.2,0.5-0.5V15v-0.9c0-0.5,0.4-0.9,0.9-0.9c0.5,0,0.9,0.4,0.9,0.9v5.5c0,0.4,0,0.8-0.1,1.2
				c-0.1,0.3,0.1,0.6,0.4,0.6h0.1c0.2,0,0.5-0.2,0.5-0.4c0.1-0.4,0.1-0.9,0.1-1.4v-5.5C17.9,13.1,17,12.2,16,12.2z"/>
		</g>
	</g>
	<g>
		<g>
			<path d="M15.6,24.4c-0.2-0.2-0.5-0.2-0.7,0c-1.2,1.1-2.8,1.7-4.4,1.7c-2.5,0-4.7-1.4-5.8-3.7l-2.4-5c-0.2-0.5,0-1,0.4-1.3
				c0.5-0.3,1-0.1,1.3,0.3l1.7,2.8c0.1,0.2,0.4,0.3,0.6,0.2c0.2-0.1,0.4-0.3,0.4-0.5v-5.2c0-0.3-0.2-0.5-0.5-0.5s-0.5,0.2-0.5,0.5
				v3.5L5,16c-0.8-1-2-1.3-3-0.7c-0.9,0.5-1.3,1.7-0.8,2.6l2.4,5c0.6,1.3,1.6,2.3,2.8,3.1c1.2,0.8,2.6,1.1,4,1.1
				c1.9,0,3.7-0.7,5.1-2C15.7,24.9,15.8,24.6,15.6,24.4z"/>
		</g>
	</g>
	<g>
		<g>
			<path d="M16.9,22.6c-0.1-0.1-0.2-0.2-0.4-0.2c-0.1,0-0.3,0.1-0.4,0.2s-0.2,0.2-0.2,0.4c0,0.1,0.1,0.3,0.2,0.4s0.2,0.2,0.4,0.2
				c0.1,0,0.3-0.1,0.4-0.2s0.2-0.2,0.2-0.4S17,22.7,16.9,22.6z"/>
		</g>
	</g>
	<g>
		<g>
			<path d="M6.4,11.8c-0.1-0.1-0.2-0.2-0.4-0.2c-0.1,0-0.3,0.1-0.4,0.2s-0.1,0.3-0.1,0.4s0.1,0.3,0.2,0.4s0.2,0.2,0.4,0.2
				c0.1,0,0.3-0.1,0.4-0.2s0.2-0.2,0.2-0.4S6.5,11.9,6.4,11.8z"/>
		</g>
	</g>
</g>
<g>
	<path d="M32.5,7.3H34v5.3h0c0.2-0.4,0.6-0.8,1.1-1.1c0.5-0.3,1-0.4,1.6-0.4c1.1,0,2.9,0.7,2.9,3.6v5h-1.5v-4.8c0-1.4-0.5-2.5-2-2.5
		c-1,0-1.8,0.7-2.1,1.5C34,14.1,34,14.3,34,14.6v5.1h-1.5V7.3z"/>
	<path d="M46.8,19.7l-0.1-1.1h-0.1c-0.5,0.7-1.4,1.3-2.6,1.3c-1.7,0-2.6-1.2-2.6-2.4c0-2,1.8-3.2,5.1-3.1v-0.2c0-0.7-0.2-2-1.9-2
		c-0.8,0-1.6,0.2-2.2,0.6l-0.3-1c0.7-0.5,1.7-0.7,2.8-0.7c2.6,0,3.2,1.8,3.2,3.4v3.2c0,0.7,0,1.4,0.1,2H46.8z M46.6,15.4
		c-1.7,0-3.6,0.3-3.6,1.9c0,1,0.7,1.5,1.4,1.5c1.1,0,1.8-0.7,2-1.4c0.1-0.2,0.1-0.3,0.1-0.5V15.4z"/>
	<path d="M49.6,18.8l3.8-5c0.4-0.5,0.7-0.9,1.1-1.3v0h-4.6v-1.2h6.4l0,1l-3.8,4.9c-0.3,0.5-0.7,0.9-1.1,1.3v0h4.9v1.2h-6.8V18.8z"/>
	<path d="M67.7,19.4c-0.4,0.2-1.3,0.5-2.4,0.5c-2.5,0-4.2-1.7-4.2-4.3c0-2.6,1.8-4.5,4.5-4.5c0.9,0,1.7,0.2,2.1,0.4l-0.3,1.2
		c-0.4-0.2-0.9-0.4-1.8-0.4c-1.9,0-3,1.4-3,3.2c0,2,1.3,3.2,2.9,3.2c0.9,0,1.4-0.2,1.9-0.4L67.7,19.4z"/>
	<path d="M69.5,7.3h1.5v12.4h-1.5V7.3z"/>
	<path d="M75.3,8.9c0,0.5-0.4,0.9-1,0.9c-0.5,0-0.9-0.4-0.9-0.9c0-0.5,0.4-1,1-1C75,7.9,75.3,8.4,75.3,8.9z M73.6,19.7v-8.4h1.5v8.4
		H73.6z"/>
	<path d="M83.7,19.4c-0.4,0.2-1.3,0.5-2.4,0.5c-2.5,0-4.2-1.7-4.2-4.3c0-2.6,1.8-4.5,4.5-4.5c0.9,0,1.7,0.2,2.1,0.4l-0.3,1.2
		c-0.4-0.2-0.9-0.4-1.8-0.4c-1.9,0-3,1.4-3,3.2c0,2,1.3,3.2,2.9,3.2c0.9,0,1.4-0.2,1.9-0.4L83.7,19.4z"/>
	<path d="M87,15.1L87,15.1c0.2-0.3,0.5-0.7,0.8-1l2.5-2.9h1.8l-3.3,3.5l3.7,5h-1.9l-2.9-4L87,16.5v3.2h-1.5V7.3H87V15.1z"/>
	<path d="M98.3,15.8c0,2.1,1.4,2.9,2.9,2.9c1.1,0,1.8-0.2,2.3-0.4l0.3,1.1c-0.5,0.2-1.5,0.5-2.8,0.5c-2.6,0-4.1-1.7-4.1-4.3
		s1.5-4.5,4-4.5c2.8,0,3.5,2.4,3.5,4c0,0.3,0,0.6-0.1,0.7H98.3z M102.7,14.7c0-1-0.4-2.5-2.1-2.5c-1.6,0-2.2,1.4-2.4,2.5H102.7z"/>
	<path d="M106.1,13.5c0-0.9,0-1.6-0.1-2.3h1.4l0.1,1.4h0c0.4-0.8,1.4-1.6,2.8-1.6c1.2,0,3,0.7,3,3.6v5h-1.5v-4.9
		c0-1.4-0.5-2.5-2-2.5c-1,0-1.8,0.7-2.1,1.6c-0.1,0.2-0.1,0.5-0.1,0.7v5.1h-1.5V13.5z"/>
	<path d="M120.4,15.8c0,2.1,1.4,2.9,2.9,2.9c1.1,0,1.8-0.2,2.3-0.4l0.3,1.1c-0.5,0.2-1.5,0.5-2.8,0.5c-2.6,0-4.1-1.7-4.1-4.3
		s1.5-4.5,4-4.5c2.8,0,3.5,2.4,3.5,4c0,0.3,0,0.6-0.1,0.7H120.4z M124.9,14.7c0-1-0.4-2.5-2.1-2.5c-1.6,0-2.2,1.4-2.4,2.5H124.9z"/>
	<path d="M128.2,7.3h1.5v12.4h-1.5V7.3z"/>
	<path d="M136,19.7c0-0.6,0.1-1.4,0.1-2.2V7.3h1.5v5.3h0c0.5-0.9,1.5-1.6,2.9-1.6c2.1,0,3.6,1.7,3.6,4.3c0,3-1.9,4.5-3.8,4.5
		c-1.2,0-2.2-0.5-2.8-1.6h-0.1l-0.1,1.4H136z M137.6,16.3c0,0.2,0,0.4,0.1,0.6c0.3,1.1,1.2,1.8,2.3,1.8c1.6,0,2.6-1.3,2.6-3.2
		c0-1.7-0.9-3.1-2.5-3.1c-1,0-2,0.7-2.3,1.9c0,0.2-0.1,0.4-0.1,0.6V16.3z"/>
	<path d="M153.6,15.4c0,3.1-2.2,4.5-4.2,4.5c-2.3,0-4-1.7-4-4.3c0-2.8,1.8-4.5,4.2-4.5C152,11.1,153.6,12.8,153.6,15.4z M146.9,15.5
		c0,1.8,1.1,3.2,2.6,3.2c1.5,0,2.6-1.4,2.6-3.3c0-1.4-0.7-3.2-2.5-3.2C147.7,12.2,146.9,13.9,146.9,15.5z"/>
	<path d="M157.4,8.8v2.4h2.2v1.2h-2.2V17c0,1,0.3,1.6,1.2,1.6c0.4,0,0.7-0.1,0.9-0.1l0.1,1.1c-0.3,0.1-0.8,0.2-1.4,0.2
		c-0.7,0-1.3-0.2-1.7-0.6c-0.4-0.5-0.6-1.2-0.6-2.2v-4.6h-1.3v-1.2h1.3v-2L157.4,8.8z"/>
	<path d="M168.8,15.4c0,3.1-2.2,4.5-4.2,4.5c-2.3,0-4-1.7-4-4.3c0-2.8,1.8-4.5,4.2-4.5C167.2,11.1,168.8,12.8,168.8,15.4z
		 M162.2,15.5c0,1.8,1.1,3.2,2.6,3.2c1.5,0,2.6-1.4,2.6-3.3c0-1.4-0.7-3.2-2.5-3.2C162.9,12.2,162.2,13.9,162.2,15.5z M167,7.6
		l-2.1,2.5h-1.1l1.5-2.5H167z"/>
	<path d="M170.8,13.5c0-0.9,0-1.6-0.1-2.3h1.4l0.1,1.4h0c0.4-0.8,1.4-1.6,2.8-1.6c1.2,0,3,0.7,3,3.6v5h-1.5v-4.9
		c0-1.4-0.5-2.5-2-2.5c-1,0-1.8,0.7-2.1,1.6c-0.1,0.2-0.1,0.5-0.1,0.7v5.1h-1.5V13.5z"/>
</g>
</svg>
